<?xml version="1.0" encoding="UTF-8"?>
<svg width="64px" height="64px" viewBox="0 0 64 64" version="1.1" xmlns="http://www.w3.org/2000/svg" xmlns:xlink="http://www.w3.org/1999/xlink">
    <title>B80E466E-E161-46F7-BCF8-D3B3779F386D</title>
    <desc>Created with sketchtool.</desc>
    <defs>
        <circle id="path-1" cx="30" cy="30" r="30"></circle>
        <polygon id="path-3" points="0.0872 0.0866 33.8432 0.0866 33.8432 9 0.0872 9"></polygon>
        <polygon id="path-5" points="0 0.505 42.0154215 0.505 42.0154215 39.3543 0 39.3543"></polygon>
    </defs>
    <g id="B購彩大廳-0429" stroke="none" stroke-width="1" fill="none" fill-rule="evenodd">
        <g id="畫板" transform="translate(-15.000000, -198.000000)">
            <g id="photo-woman" transform="translate(17.000000, 200.000000)">
                <g id="man">
                    <mask id="mask-2" fill="white">
                        <use xlink:href="#path-1"></use>
                    </mask>
                    <use id="遮罩" fill="#D6C2C5" xlink:href="#path-1"></use>
                    <g id="群組" mask="url(#mask-2)">
                        <g transform="translate(10.000000, 3.000000)">
                            <path d="M14.2316,46.5816 C14.1926,46.5356 14.1726,46.5086 14.1726,46.5056 C14.8146,46.3536 15.4616,46.2266 16.1126,46.1196 L16.1126,43.3606 L16.1126,43.3536 C10.0336,42.0916 7.2686,37.7766 6.0206,33.0786 C5.6956,33.1846 5.3546,33.2436 5.0006,33.2436 C4.6066,33.2436 4.2276,33.1736 3.8706,33.0446 C3.5956,35.2276 3.7196,37.5346 4.3976,39.8226 C4.3976,39.8226 4.3916,39.8166 4.3826,39.8076 C4.3876,39.8206 4.3926,39.8346 4.3976,39.8496 C5.9806,44.2586 4.0526,51.8606 3.4936,53.8666 C4.7776,51.1156 8.9956,48.0036 14.2316,46.5816" id="Fill-1" fill="#432B1F"></path>
                            <path d="M36.5631,32.8101 C36.0691,33.0851 35.5161,33.2441 34.9301,33.2441 C34.5791,33.2441 34.2401,33.1851 33.9171,33.0811 C32.6731,37.7801 29.9081,42.0941 23.8181,43.3561 L23.8181,44.9591 L23.8181,46.1391 C24.5051,46.2541 25.1881,46.3941 25.8621,46.5581 C25.8491,46.5721 25.8281,46.5931 25.8091,46.6141 C31.0891,48.0751 35.3171,51.2491 36.5051,54.0181 C36.0121,52.2791 33.9331,44.3781 35.5591,39.8491 C35.5631,39.8381 35.5661,39.8291 35.5701,39.8191 C35.5491,39.8281 35.5271,39.8411 35.5071,39.8491 C35.9911,37.7621 36.5851,35.1451 36.5631,32.8101" id="Fill-3" fill="#432B1F"></path>
                            <path d="M23.818,44.9595 L23.818,43.3555 C22.658,43.5965 21.38,43.7275 19.965,43.7275 C18.551,43.7275 17.273,43.5955 16.112,43.3545 L16.112,43.3605 C16.112,43.3605 19.362,45.4315 23.818,44.9595" id="Fill-5" fill="#FCBC85"></path>
                            <path d="M3.8707,33.0445 C4.2267,33.1735 4.6067,33.2435 4.9997,33.2435 C5.3547,33.2435 5.6957,33.1845 6.0207,33.0785 C5.5897,31.4555 5.3397,29.7875 5.1967,28.1845 C4.5517,29.6805 4.0877,31.3235 3.8707,33.0445" id="Fill-7" fill="#FCBC85"></path>
                            <path d="M34.9303,33.2437 C35.5163,33.2437 36.0693,33.0857 36.5633,32.8097 C36.5443,30.8427 36.0863,29.0787 34.7543,28.0037 C34.6153,29.6637 34.3643,31.3957 33.9173,33.0807 C34.2403,33.1847 34.5783,33.2437 34.9303,33.2437" id="Fill-9" fill="#FCBC85"></path>
                            <path d="M19.0739,39.272 C19.0739,39.062 19.4149,39.482 19.9649,39.482 C20.5159,39.482 20.8559,39.062 20.8559,39.272 C20.8559,39.482 20.6989,39.849 19.9649,39.849 C19.2309,39.849 19.0739,39.482 19.0739,39.272 M15.9029,37.254 C15.9029,36.992 17.4229,38.014 19.9649,38.014 C22.5079,38.014 24.0279,36.965 24.0279,37.254 C24.0279,37.516 23.2939,38.539 19.9649,38.539 C16.6369,38.539 15.9029,37.516 15.9029,37.254 M14.9069,24.254 C12.1029,23.127 10.8709,24.412 10.1109,24.124 C9.6389,23.94 10.1109,22.499 12.7049,22.499 C15.7199,22.499 15.4309,24.464 14.9069,24.254 M12.6789,29.706 C11.7819,29.706 11.0539,28.908 11.0539,27.923 C11.0539,26.94 11.7819,26.141 12.6789,26.141 C13.5769,26.141 14.3039,26.94 14.3039,27.923 C14.3039,28.908 13.5769,29.706 12.6789,29.706 M10.6089,35.787 C9.3929,35.787 8.4069,34.8 8.4069,33.585 C8.4069,32.369 9.3929,31.383 10.6089,31.383 C11.8239,31.383 12.8099,32.369 12.8099,33.585 C12.8099,34.8 11.8239,35.787 10.6089,35.787 M19.9649,34.162 C21.5639,34.162 22.5339,32.982 22.5339,33.533 C22.5339,34.109 22.0619,35.21 19.9649,35.21 C17.8679,35.21 17.3969,34.109 17.3969,33.533 C17.3969,32.956 18.3659,34.162 19.9649,34.162 M27.2509,22.499 C29.8459,22.499 30.2909,23.94 29.8459,24.124 C29.0859,24.412 27.8539,23.127 25.0499,24.254 C24.5259,24.464 24.2369,22.499 27.2509,22.499 M31.8119,33.585 C31.8119,34.8 30.8259,35.787 29.6099,35.787 C28.3939,35.787 27.4079,34.8 27.4079,33.585 C27.4079,32.369 28.3939,31.383 29.6099,31.383 C30.8259,31.383 31.8119,32.369 31.8119,33.585 M25.8359,27.923 C25.8359,26.94 26.5639,26.141 27.4609,26.141 C28.3579,26.141 29.0859,26.94 29.0859,27.923 C29.0859,28.908 28.3579,29.706 27.4609,29.706 C26.5639,29.706 25.8359,28.908 25.8359,27.923 M23.8179,43.356 C29.9079,42.094 32.6729,37.78 33.9179,33.081 C34.3639,31.396 34.6159,29.664 34.7549,28.003 C34.5899,27.871 34.4149,27.747 34.2229,27.635 C29.4529,24.883 27.9849,17.388 27.9849,17.388 C27.9849,17.388 19.2049,20.506 13.6489,20.612 C10.5149,20.67 7.0889,23.792 5.1969,28.184 C5.3399,29.788 5.5899,31.456 6.0209,33.079 C7.2679,37.777 10.0329,42.091 16.1129,43.354 C17.2729,43.595 18.5509,43.727 19.9649,43.727 C21.3799,43.727 22.6579,43.596 23.8179,43.356" id="Fill-11" fill="#FDCC9B"></path>
                            <path d="M11.9713,27.6089 C11.7113,27.6089 11.4993,27.3979 11.4993,27.1369 C11.4993,26.8769 11.7113,26.6659 11.9713,26.6659 C12.2323,26.6659 12.4433,26.8769 12.4433,27.1369 C12.4433,27.3979 12.2323,27.6089 11.9713,27.6089 M12.6793,26.1409 C11.7823,26.1409 11.0543,26.9399 11.0543,27.9229 C11.0543,28.9079 11.7823,29.7059 12.6793,29.7059 C13.5763,29.7059 14.3043,28.9079 14.3043,27.9229 C14.3043,26.9399 13.5763,26.1409 12.6793,26.1409" id="Fill-13" fill="#3B2519"></path>
                            <path d="M11.9713,26.6655 C11.7113,26.6655 11.4993,26.8765 11.4993,27.1375 C11.4993,27.3975 11.7113,27.6085 11.9713,27.6085 C12.2323,27.6085 12.4433,27.3975 12.4433,27.1375 C12.4433,26.8765 12.2323,26.6655 11.9713,26.6655" id="Fill-15" fill="#FFFFFF"></path>
                            <path d="M12.7052,22.4986 C10.1112,22.4986 9.6392,23.9396 10.1112,24.1236 C10.8712,24.4116 12.1022,23.1276 14.9072,24.2546 C15.4312,24.4646 15.7192,22.4986 12.7052,22.4986" id="Fill-17" fill="#51362A"></path>
                            <path d="M26.7531,27.6089 C26.4931,27.6089 26.2811,27.3979 26.2811,27.1369 C26.2811,26.8769 26.4931,26.6659 26.7531,26.6659 C27.0141,26.6659 27.2251,26.8769 27.2251,27.1369 C27.2251,27.3979 27.0141,27.6089 26.7531,27.6089 M29.0861,27.9229 C29.0861,26.9399 28.3581,26.1409 27.4611,26.1409 C26.5641,26.1409 25.8361,26.9399 25.8361,27.9229 C25.8361,28.9079 26.5641,29.7059 27.4611,29.7059 C28.3581,29.7059 29.0861,28.9079 29.0861,27.9229" id="Fill-19" fill="#3B2519"></path>
                            <path d="M26.7531,26.6655 C26.4931,26.6655 26.2811,26.8765 26.2811,27.1375 C26.2811,27.3975 26.4931,27.6085 26.7531,27.6085 C27.0141,27.6085 27.2251,27.3975 27.2251,27.1375 C27.2251,26.8765 27.0141,26.6655 26.7531,26.6655" id="Fill-21" fill="#FFFFFF"></path>
                            <path d="M25.0494,24.2544 C27.8544,23.1274 29.0854,24.4114 29.8454,24.1234 C30.2914,23.9404 29.8454,22.4984 27.2514,22.4984 C24.2374,22.4984 24.5254,24.4644 25.0494,24.2544" id="Fill-23" fill="#51362A"></path>
                            <path d="M19.965,35.2095 C22.062,35.2095 22.534,34.1085 22.534,33.5325 C22.534,32.9815 21.564,34.1615 19.965,34.1615 C18.366,34.1615 17.397,32.9555 17.397,33.5325 C17.397,34.1085 17.868,35.2095 19.965,35.2095" id="Fill-25" fill="#FCBC85"></path>
                            <path d="M20.8561,39.272 C20.8561,39.062 20.5161,39.482 19.9651,39.482 C19.4151,39.482 19.0741,39.062 19.0741,39.272 C19.0741,39.482 19.2311,39.849 19.9651,39.849 C20.6991,39.849 20.8561,39.482 20.8561,39.272" id="Fill-27" fill="#FCBC85"></path>
                            <path d="M24.0275,37.2544 C24.0275,36.9654 22.5075,38.0144 19.9655,38.0144 C17.4235,38.0144 15.9025,36.9914 15.9025,37.2544 C15.9025,37.5164 16.6365,38.5384 19.9655,38.5384 C23.2935,38.5384 24.0275,37.5164 24.0275,37.2544" id="Fill-29" fill="#F7945E"></path>
                            <path d="M10.6085,31.3833 C9.3925,31.3833 8.4075,32.3683 8.4075,33.5843 C8.4075,34.8003 9.3925,35.7863 10.6085,35.7863 C11.8245,35.7863 12.8105,34.8003 12.8105,33.5843 C12.8105,32.3683 11.8245,31.3833 10.6085,31.3833" id="Fill-31" fill="#F9AA8D"></path>
                            <path d="M27.4083,33.5845 C27.4083,34.8005 28.3943,35.7865 29.6103,35.7865 C30.8253,35.7865 31.8113,34.8005 31.8113,33.5845 C31.8113,32.3685 30.8253,31.3835 29.6103,31.3835 C28.3943,31.3835 27.4083,32.3685 27.4083,33.5845" id="Fill-33" fill="#F9AA8D"></path>
                            <g id="群組" stroke-width="1" fill="none" transform="translate(3.000000, 46.495200)">
                                <mask id="mask-4" fill="white">
                                    <use xlink:href="#path-3"></use>
                                </mask>
                                <g id="Clip-36"></g>
                                <path d="M22.8092,0.1186 C22.3582,0.5896 20.1572,2.6836 16.9132,2.6836 C13.6212,2.6836 11.5922,0.5226 11.2312,0.0866 C5.9962,1.5086 1.7782,4.6206 0.4932,7.3716 C0.2302,7.9346 0.0872,8.4836 0.0872,9.0006 L16.9652,9.0006 L33.8432,9.0006 C33.8432,8.5306 33.7252,8.0336 33.5052,7.5226 C32.3172,4.7546 28.0892,1.5796 22.8092,0.1186" id="Fill-35" fill="#6944B2" mask="url(#mask-4)"></path>
                            </g>
                            <path d="M23.818,46.1392 L23.818,46.1392 C23.814,46.1442 22.686,47.5282 19.965,47.5282 C17.239,47.5282 16.112,46.1392 16.112,46.1392 C16.145,46.1262 16.177,46.1162 16.209,46.1042 C16.177,46.1092 16.145,46.1152 16.112,46.1192 C15.462,46.2262 14.815,46.3542 14.173,46.5052 C14.173,46.5082 14.193,46.5352 14.232,46.5812 C14.592,47.0182 16.621,49.1792 19.913,49.1792 C23.157,49.1792 25.359,47.0842 25.809,46.6142 C25.828,46.5932 25.849,46.5722 25.862,46.5582 C25.189,46.3942 24.505,46.2542 23.818,46.1392" id="Fill-37" fill="#563C60"></path>
                            <path d="M16.1124,46.1392 C16.1124,46.1392 17.2394,47.5282 19.9654,47.5282 C22.6864,47.5282 23.8134,46.1442 23.8174,46.1392 L23.8184,46.1392 L23.8184,44.9592 C19.3624,45.4312 16.1124,43.3612 16.1124,43.3612 L16.1124,46.1192 C16.1444,46.1152 16.1764,46.1092 16.2094,46.1042 C16.1764,46.1162 16.1444,46.1262 16.1124,46.1392" id="Fill-39" fill="#FDCC9B"></path>
                            <g id="群組" stroke-width="1" fill="none" transform="translate(0.000000, 0.495200)">
                                <mask id="mask-6" fill="white">
                                    <use xlink:href="#path-5"></use>
                                </mask>
                                <g id="Clip-42"></g>
                                <path d="M3.8707,32.5493 C4.0877,30.8283 4.5517,29.1853 5.1967,27.6893 C7.0887,23.2963 10.5147,20.1753 13.6487,20.1163 C19.2047,20.0113 27.9847,16.8933 27.9847,16.8933 C27.9847,16.8933 29.4527,24.3883 34.2227,27.1403 C34.4147,27.2513 34.5897,27.3753 34.7547,27.5083 C36.0857,28.5833 36.5447,30.3473 36.5627,32.3153 C36.5847,34.6503 35.9917,37.2673 35.5067,39.3543 C35.5277,39.3463 35.5487,39.3323 35.5697,39.3233 C39.1127,37.7053 49.1477,11.6503 33.5147,6.9333 C23.8177,-4.6247 5.3407,0.0143 1.2517,15.9493 C-2.7333,31.4853 4.0397,38.9473 4.3827,39.3123 C4.3917,39.3213 4.3967,39.3273 4.3967,39.3273 C3.7197,37.0393 3.5957,34.7333 3.8707,32.5493" id="Fill-41" fill="#51362A" mask="url(#mask-6)"></path>
                            </g>
                        </g>
                    </g>
                </g>
                <circle id="橢圓形" stroke="#DFD7DE" stroke-width="3" cx="30" cy="30" r="30"></circle>
            </g>
        </g>
    </g>
</svg>