<?xml version="1.0" encoding="UTF-8"?>
<svg width="64px" height="64px" viewBox="0 0 64 64" version="1.1" xmlns="http://www.w3.org/2000/svg" xmlns:xlink="http://www.w3.org/1999/xlink">
    <title>EE83CBA3-834A-4D45-81F6-E9C3C4AB9C73</title>
    <desc>Created with sketchtool.</desc>
    <defs>
        <circle id="path-1" cx="30" cy="30" r="30"></circle>
        <polygon id="path-3" points="0 0.153441624 10.4743858 0.153441624 10.4743858 9.10653807 0 9.10653807"></polygon>
        <polygon id="path-5" points="0.243715736 0.061035533 4.35539086 0.061035533 4.35539086 10.3553299 0.243715736 10.3553299"></polygon>
        <polygon id="path-7" points="0.159045685 0.16684264 10.5989848 0.16684264 10.5989848 9.10653807 0.159045685 9.10653807"></polygon>
        <polygon id="path-9" points="0.18271066 0.0609746193 4.32484264 0.0609746193 4.32484264 10.3553299 0.18271066 10.3553299"></polygon>
    </defs>
    <g id="B購彩大廳-0429" stroke="none" stroke-width="1" fill="none" fill-rule="evenodd">
        <g id="畫板" transform="translate(-15.000000, -286.000000)">
            <g id="photo-man" transform="translate(17.000000, 288.000000)">
                <g id="man">
                    <mask id="mask-2" fill="white">
                        <use xlink:href="#path-1"></use>
                    </mask>
                    <use id="遮罩" fill="#BDC3CB" xlink:href="#path-1"></use>
                    <g id="群組" mask="url(#mask-2)">
                        <g transform="translate(8.000000, 3.000000)">
                            <path d="M18.1969036,46.2679492 C19.6222843,46.940132 22.5735533,48.0210457 26.2235025,47.6345482 L26.2235025,46.098 C24.9178173,46.3733299 23.4351777,46.5381015 21.7460406,46.5381015 C20.4443147,46.5381015 19.2677665,46.4385076 18.1969036,46.2679492" id="Fill-1" fill="#FCBC85"></path>
                            <path d="M4.93404061,30.9137056 C4.18815228,30.9137056 3.15992893,29.1054822 2.85962437,24.3392893 C1.19211168,25.039797 3.04568528e-05,26.8705584 3.04568528e-05,29.0253807 C3.04568528e-05,31.7838579 1.94987817,34.0203046 4.35536041,34.0203046 C4.77718782,34.0203046 5.18409137,33.9478173 5.56967513,33.8195939 C5.31475127,32.8574619 5.11434518,31.8822335 4.95718782,30.9094416 C4.94926904,30.9106599 4.94195939,30.9137056 4.93404061,30.9137056" id="Fill-3" fill="#FCBC85"></path>
                            <path d="M38.8019695,30.9137056 C38.7343553,30.9137056 38.6737462,30.8640609 38.6183147,30.7711675 C38.457198,31.7951269 38.2485685,32.8233503 37.9790254,33.8363452 C38.348467,33.9529949 38.735269,34.0203046 39.1372995,34.0203046 C41.5424772,34.0203046 43.4923249,31.7838579 43.4923249,29.0253807 C43.4923249,26.9735025 42.4126294,25.2124873 40.8699898,24.4437563 C40.5611574,29.1325888 39.5426802,30.9137056 38.8019695,30.9137056" id="Fill-5" fill="#FCBC85"></path>
                            <path d="M21.746132,39.5635736 C24.7004467,39.5635736 26.4669442,38.3452995 26.4669442,38.6803249 C26.4669442,38.9848934 25.6141523,40.1727107 21.746132,40.1727107 C17.8781117,40.1727107 17.0253198,38.9848934 17.0253198,38.6803249 C17.0253198,38.3757563 18.7918173,39.5635736 21.746132,39.5635736 M15.8679594,22.9338274 C12.6090761,21.2285482 11.1776041,23.2082437 10.2943553,22.7513909 C9.74613198,22.4769746 10.2943553,20.2843858 13.3095838,20.2843858 C16.8121218,20.2843858 16.4770964,23.2383959 15.8679594,22.9338274 M13.3095838,29.9087513 C12.2667411,29.9087513 11.4212589,28.9813401 11.4212589,27.8376853 C11.4212589,26.6937259 12.2667411,25.7666193 13.3095838,25.7666193 C14.352731,25.7666193 15.1979086,26.6937259 15.1979086,27.8376853 C15.1979086,28.9813401 14.352731,29.9087513 13.3095838,29.9087513 M21.746132,35.0864162 C23.6043046,35.0864162 24.7309036,33.6850964 24.7309036,34.3551472 C24.7309036,35.0255025 24.1826802,36.3046904 21.746132,36.3046904 C19.3095838,36.3046904 18.7613604,35.0255025 18.7613604,34.3551472 C18.7613604,33.6850964 19.888264,35.0864162 21.746132,35.0864162 M30.2131371,20.2843858 C33.2283655,20.2843858 33.746132,22.4769746 33.2283655,22.7513909 C32.3451168,23.2082437 30.9139492,21.2285482 27.6547614,22.9338274 C27.0456244,23.2383959 26.710599,20.2843858 30.2131371,20.2843858 M30.4570964,29.9087513 C29.4139492,29.9087513 28.568467,28.9813401 28.568467,27.8376853 C28.568467,26.6937259 29.4139492,25.7666193 30.4570964,25.7666193 C31.4996345,25.7666193 32.3451168,26.6937259 32.3451168,27.8376853 C32.3451168,28.9813401 31.4996345,29.9087513 30.4570964,29.9087513 M21.746132,41.6955533 C20.8933401,41.6955533 20.710599,41.2691574 20.710599,41.0255025 C20.710599,40.7818477 21.1065381,41.2691574 21.746132,41.2691574 C22.3860305,41.2691574 22.781665,40.7818477 22.781665,41.0255025 C22.781665,41.2691574 22.5989239,41.6955533 21.746132,41.6955533 M21.746132,42.3652995 C24.3349645,42.3652995 24.2740508,43.7666193 26.2232893,43.7967716 C30.7004467,43.7967716 35.7870457,39.1371777 35.1166904,40.1727107 C35.1109036,40.1812386 35.1035939,40.192203 35.0975025,40.2013401 C36.4647107,38.3063147 37.3744569,36.1097665 37.9790254,33.8361624 C38.2485685,32.8231675 38.457198,31.7949442 38.6183147,30.7712893 C37.8011574,29.3955533 38.2202437,18.4414416 36.8222741,15.9595127 C34.1725279,11.0864162 29.3603452,14.6803249 21.8679594,14.6803249 C14.3755736,14.6803249 9.56339086,11.0864162 6.91364467,15.9595127 C5.43252792,18.5894619 5.9911066,30.7301726 4.95709645,30.9095635 C5.11425381,31.8820508 5.3146599,32.8572792 5.56988832,33.8197157 C6.15587817,36.0293604 7.03090355,38.1656041 8.3320203,40.0249949 C8.62440609,39.945198 13.1981117,43.7967716 17.2689746,43.7967716 C19.2486701,43.7666193 19.1572995,42.3652995 21.746132,42.3652995" id="Fill-7" fill="#FDCC9B"></path>
                            <path d="M12.4872792,27.4721421 C12.1845381,27.4721421 11.9390558,27.2266599 11.9390558,26.9239188 C11.9390558,26.6211777 12.1845381,26.3756954 12.4872792,26.3756954 C12.7900203,26.3756954 13.0355025,26.6211777 13.0355025,26.9239188 C13.0355025,27.2266599 12.7900203,27.4721421 12.4872792,27.4721421 M13.3096142,25.7665584 C12.2667716,25.7665584 11.4212893,26.693665 11.4212893,27.8376244 C11.4212893,28.9815838 12.2667716,29.9086904 13.3096142,29.9086904 C14.3527614,29.9086904 15.1979391,28.9815838 15.1979391,27.8376244 C15.1979391,26.693665 14.3527614,25.7665584 13.3096142,25.7665584" id="Fill-9" fill="#3B2519"></path>
                            <path d="M12.4872792,26.375665 C12.1845381,26.375665 11.9390558,26.6211472 11.9390558,26.9238883 C11.9390558,27.2266294 12.1845381,27.4721117 12.4872792,27.4721117 C12.7900203,27.4721117 13.0355025,27.2266294 13.0355025,26.9238883 C13.0355025,26.6211472 12.7900203,26.375665 12.4872792,26.375665" id="Fill-11" fill="#FFFFFF"></path>
                            <path d="M13.3096751,20.2842944 C10.2944467,20.2842944 9.74622335,22.4771878 10.2944467,22.7512995 C11.1776954,23.2081523 12.6091675,21.2284569 15.8680508,22.9340406 C16.4771878,23.2386091 16.8122132,20.2842944 13.3096751,20.2842944" id="Fill-13" fill="#86461B"></path>
                            <path d="M29.6345787,27.4721421 C29.3318376,27.4721421 29.0863553,27.2266599 29.0863553,26.9239188 C29.0863553,26.6211777 29.3318376,26.3756954 29.6345787,26.3756954 C29.9373198,26.3756954 30.182802,26.6211777 30.182802,26.9239188 C30.182802,27.2266599 29.9373198,27.4721421 29.6345787,27.4721421 M30.4569137,25.7665584 C29.4137665,25.7665584 28.5685888,26.693665 28.5685888,27.8376244 C28.5685888,28.9815838 29.4137665,29.9086904 30.4569137,29.9086904 C31.4997563,29.9086904 32.344934,28.9815838 32.344934,27.8376244 C32.344934,26.693665 31.4997563,25.7665584 30.4569137,25.7665584" id="Fill-15" fill="#3B2519"></path>
                            <path d="M29.6345787,26.375665 C29.3318376,26.375665 29.0863553,26.6211472 29.0863553,26.9238883 C29.0863553,27.2266294 29.3318376,27.4721117 29.6345787,27.4721117 C29.9373198,27.4721117 30.182802,27.2266294 30.182802,26.9238883 C30.182802,26.6211472 29.9373198,26.375665 29.6345787,26.375665" id="Fill-17" fill="#FFFFFF"></path>
                            <path d="M27.6548832,22.9339492 C30.9137665,21.2283655 32.344934,23.2080609 33.2284873,22.7512081 C33.7462538,22.4770964 33.2284873,20.284203 30.2129543,20.284203 C26.7104162,20.284203 27.0457462,23.2385178 27.6548832,22.9339492" id="Fill-19" fill="#86461B"></path>
                            <path d="M21.746132,36.3046294 C24.1826802,36.3046294 24.7309036,35.0254416 24.7309036,34.3553909 C24.7309036,33.6850355 23.6043046,35.0863553 21.746132,35.0863553 C19.888264,35.0863553 18.7613604,33.6850355 18.7613604,34.3553909 C18.7613604,35.0254416 19.3095838,36.3046294 21.746132,36.3046294" id="Fill-21" fill="#FCBC85"></path>
                            <path d="M21.746132,41.2690355 C21.1065381,41.2690355 20.710599,40.7817259 20.710599,41.0253807 C20.710599,41.2690355 20.8933401,41.6954315 21.746132,41.6954315 C22.5989239,41.6954315 22.781665,41.2690355 22.781665,41.0253807 C22.781665,40.7817259 22.3860305,41.2690355 21.746132,41.2690355" id="Fill-23" fill="#FCBC85"></path>
                            <path d="M21.746132,40.1727107 C25.6141523,40.1727107 26.4669442,38.9848934 26.4669442,38.6803249 C26.4669442,38.3452995 24.7004467,39.5635736 21.746132,39.5635736 C18.7918173,39.5635736 17.0253198,38.3757563 17.0253198,38.6803249 C17.0253198,38.9848934 17.8781117,40.1727107 21.746132,40.1727107" id="Fill-25" fill="#F7945E"></path>
                            <path d="M33.6248832,51.1737563 C33.4348325,51.0936548 33.2450863,51.0141624 33.0516853,50.936802 L33.0522944,50.9386294 C33.2447817,51.0153807 33.4354416,51.0939594 33.6248832,51.1737563" id="Fill-27" fill="#7A8CCC"></path>
                            <path d="M28.5947513,49.4965584 C28.1887614,49.9031574 25.6343452,52.5379797 21.7462234,52.5379797 C17.6302843,52.5379797 15.2391168,49.5903655 15.1416548,49.4392995 C14.3784061,49.6229543 13.6242944,49.8331066 12.8832792,50.0673198 L12.8832792,59.8780812 L21.7462234,59.8780812 L30.6396244,59.8780812 L30.6396244,50.0755431 C29.9677462,49.8629543 29.2855127,49.6680305 28.5947513,49.4965584" id="Fill-29" fill="#7A8CCC"></path>
                            <path d="M43.1072589,58.339736 C42.1618782,56.3311066 39.5221827,54.1199391 36.0507107,52.3114112 C39.5154822,54.1181117 42.1554822,56.3301929 43.1072589,58.339736" id="Fill-31" fill="#7A8CCC"></path>
                            <path d="M43.1099391,58.3457056 C43.2421218,58.6249949 43.3377563,58.9000203 43.4020203,59.169868 C43.3392792,58.9000203 43.2412081,58.6249949 43.1099391,58.3457056" id="Fill-33" fill="#7A8CCC"></path>
                            <path d="M21.746132,52.5380711 C25.6345584,52.5380711 28.1886701,49.9032487 28.5946599,49.4966497 L28.5989239,49.4923858 C28.2794315,49.4147208 27.9584162,49.3425381 27.6367919,49.2737056 C27.5241015,49.2496447 27.4111066,49.2274112 27.2981117,49.2045685 C27.1312081,49.1704569 26.9646091,49.1366497 26.797401,49.1052792 C26.6122234,49.0705584 26.4267411,49.0385787 26.2412589,49.0069036 C26.2351675,49.0059898 26.2293807,49.0047716 26.2232893,49.0038579 C26.2211574,49.0035533 26.2193299,49.0032487 26.217198,49.0029442 C26.2190254,49.0035533 26.2232893,49.0050761 26.2232893,49.0050761 C26.2232893,49.0050761 24.9136447,50.6192893 21.746132,50.6192893 C18.5786193,50.6192893 17.2689746,49.0050761 17.2689746,49.0050761 C17.277198,49.0020305 17.2854213,48.9992893 17.2936447,48.9959391 C17.2854213,48.9974619 17.277198,48.9986802 17.2689746,49.000203 C16.5523249,49.120203 15.8396345,49.2633503 15.1369949,49.4314721 C15.1369949,49.4320812 15.139736,49.435736 15.1415635,49.4390863 C15.2393299,49.5901523 17.6304975,52.5380711 21.746132,52.5380711" id="Fill-35" fill="#5F99D3"></path>
                            <path d="M17.269066,49.005198 C17.269066,49.005198 18.5787107,50.6194112 21.7462234,50.6194112 C24.913736,50.6194112 26.2233807,49.005198 26.2233807,49.005198 C26.2233807,49.005198 26.2188122,49.0033706 26.2169848,49.0027614 C26.2191168,49.003066 26.2212487,49.0033706 26.2233807,49.0039797 L26.2233807,47.6346396 C22.573736,48.0211371 19.6221624,46.9402234 18.1967817,46.2680406 C17.878203,46.2174822 17.5681523,46.1611371 17.269066,46.0980914 L17.269066,49.0000203 C17.2772893,48.998802 17.2855127,48.9975838 17.293736,48.9960609 C17.2855127,48.9991066 17.2772893,49.0018477 17.269066,49.005198" id="Fill-37" fill="#FDCC9B"></path>
                            <path d="M21.746132,46.5380102 C23.435269,46.5380102 24.9179086,46.3732386 26.2232893,46.0982132 C32.0975025,44.8598376 34.3315127,41.3536447 35.0975025,40.2011574 C35.1035939,40.1923249 35.1109036,40.1813604 35.1166904,40.1728325 C35.7870457,39.1369949 30.7004467,43.7968934 26.2232893,43.7968934 C24.2740508,43.7664365 24.3349645,42.3654213 21.746132,42.3654213 C19.1572995,42.3654213 19.2486701,43.7664365 17.2689746,43.7968934 C13.1981117,43.7968934 8.62440609,39.9453198 8.3320203,40.0248122 C8.30278173,40.0330355 8.31496447,40.0787208 8.3755736,40.1728325 C9.12420305,41.2954721 11.3478579,44.8497868 17.2689746,46.0982132 C17.5683655,46.1612589 17.8784162,46.2172995 18.1969949,46.2678579 C19.2675533,46.4384162 20.4444061,46.5380102 21.746132,46.5380102" id="Fill-39" fill="#86461B"></path>
                            <path d="M4.93404061,30.9137056 C4.94195939,30.9137056 4.94926904,30.9106599 4.95718782,30.9094416 C5.99119797,30.7300508 5.43231472,18.5896447 6.91373604,15.9593909 C9.56348223,11.0862944 14.375665,14.680203 21.8680508,14.680203 C29.3604365,14.680203 34.1726193,11.0862944 36.8223655,15.9593909 C38.220335,18.4416244 37.8012487,29.3954315 38.6184061,30.7711675 C38.6738376,30.8640609 38.7344467,30.9137056 38.8020609,30.9137056 C39.542467,30.9137056 40.5612487,29.1325888 40.8700812,24.4437563 C41.0059188,22.382132 41.0050051,19.7607107 40.7817563,16.4771574 C40.0812487,5.72588832 37.2183046,0 21.8680508,0 C6.54825381,0 3.65485279,5.72588832 2.95434518,16.4771574 C2.73475127,19.7061929 2.73048731,22.2935025 2.85962437,24.3392893 C3.15992893,29.1054822 4.18815228,30.9137056 4.93404061,30.9137056" id="Fill-41" fill="#86461B"></path>
                            <g id="群組" stroke-width="1" fill="none" transform="translate(0.000000, 50.771574)">
                                <mask id="mask-4" fill="white">
                                    <use xlink:href="#path-3"></use>
                                </mask>
                                <g id="Clip-44"></g>
                                <path d="M9.49245685,0.563390863 L9.4513401,0.581360406 C5.74291371,2.20166497 2.68900508,4.33059898 1.12748223,6.37790863 C1.12504569,6.38125888 1.12291371,6.38430457 1.12047716,6.38765482 C1.00504569,6.53932995 0.897532995,6.69039594 0.79915736,6.84085279 C0.79519797,6.84694416 0.79093401,6.8524264 0.787279188,6.85851777 C0.688903553,7.00958376 0.599055838,7.15973604 0.518345178,7.30897462 C0.511949239,7.32085279 0.506771574,7.3324264 0.500375635,7.34430457 C0.43093401,7.47496447 0.36880203,7.60501523 0.313370558,7.73415228 C0.30271066,7.7591269 0.291441624,7.78410152 0.281086294,7.80907614 C0.224436548,7.94826396 0.174182741,8.0862335 0.134284264,8.22298477 C0.130629442,8.23638579 0.127888325,8.24948223 0.124233503,8.26288325 C0.0907309645,8.38349239 0.0651472081,8.50227411 0.0450456853,8.6204467 C0.0395634518,8.65394924 0.0340812183,8.68745178 0.0298172589,8.72064975 C0.0121522843,8.85070051 -3.04568528e-05,8.97983756 -3.04568528e-05,9.10653807 L8.77732995,9.10653807 L10.4743858,0.153441624 C10.1424061,0.285928934 9.81529949,0.422984772 9.49245685,0.563390863" id="Fill-43" fill="#4F4DA0" mask="url(#mask-4)"></path>
                            </g>
                            <g id="群組" stroke-width="1" fill="none" transform="translate(8.527919, 49.553299)">
                                <mask id="mask-6" fill="white">
                                    <use xlink:href="#path-5"></use>
                                </mask>
                                <g id="Clip-46"></g>
                                <path d="M4.35539086,0.061035533 C4.35539086,0.061035533 2.61935025,0.730781726 2.0102132,1.03535025 L1.94625381,1.37189848 L0.249502538,10.3246904 L0.243715736,10.3554518 L4.35539086,10.3554518 L4.35539086,10.3246904 L4.35539086,0.513928934 L4.35539086,0.061035533 Z" id="Fill-45" fill="#695CC6" mask="url(#mask-6)"></path>
                            </g>
                            <g id="群組" stroke-width="1" fill="none" transform="translate(32.893401, 50.771574)">
                                <mask id="mask-8" fill="white">
                                    <use xlink:href="#path-7"></use>
                                </mask>
                                <g id="Clip-48"></g>
                                <path d="M10.5737665,8.74897462 C10.5664569,8.69019289 10.5570152,8.63080203 10.5460508,8.57141117 C10.5356954,8.51415228 10.522599,8.45628426 10.5085888,8.39841624 C10.4443249,8.12856853 10.3486904,7.85354315 10.2165076,7.57425381 C10.2155939,7.5724264 10.2146802,7.57029442 10.2137665,7.56816244 C9.26198985,5.55861929 6.62198985,3.34653807 3.15721827,1.53983756 C3.1511269,1.53679188 3.14473096,1.53374619 3.13863959,1.53039594 C2.61935025,1.25993909 2.08056853,0.999228426 1.52716751,0.748873096 C1.48635533,0.730598985 1.44554315,0.712020305 1.40473096,0.693746193 C1.23447716,0.617604061 1.06239594,0.542375635 0.889401015,0.468670051 C0.837015228,0.44613198 0.784020305,0.424507614 0.731634518,0.402274112 C0.541888325,0.322477157 0.351532995,0.243898477 0.159045685,0.16684264 L1.88259898,9.10653807 L10.5990457,9.10653807 C10.5990457,8.98897462 10.5889949,8.86958376 10.5737665,8.74897462" id="Fill-47" fill="#4F4DA0" mask="url(#mask-8)"></path>
                            </g>
                            <g id="群組" stroke-width="1" fill="none" transform="translate(30.456853, 49.553299)">
                                <mask id="mask-10" fill="white">
                                    <use xlink:href="#path-9"></use>
                                </mask>
                                <g id="Clip-50"></g>
                                <path d="M2.5948934,1.38341117 L2.52788832,1.03528934 C1.91875127,0.730720812 0.18271066,0.0609746193 0.18271066,0.0609746193 L0.18271066,0.522395939 L0.18271066,10.3246294 L0.18271066,10.3553909 L4.32484264,10.3553909 L4.31905584,10.3246294 L2.59550254,1.38523858 L2.5948934,1.38341117 Z" id="Fill-49" fill="#695CC6" mask="url(#mask-10)"></path>
                            </g>
                        </g>
                    </g>
                </g>
                <circle id="橢圓形" stroke="#DFD7DE" stroke-width="3" cx="30" cy="30" r="30"></circle>
            </g>
        </g>
    </g>
</svg>