<?xml version="1.0" encoding="UTF-8"?>
<svg width="64px" height="64px" viewBox="0 0 64 64" version="1.1" xmlns="http://www.w3.org/2000/svg" xmlns:xlink="http://www.w3.org/1999/xlink">
    <title>93A74F3A-9976-4BF6-B5DA-6EB82FDC5338</title>
    <desc>Created with sketchtool.</desc>
    <defs>
        <circle id="path-1" cx="30" cy="30" r="30"></circle>
        <polygon id="path-3" points="0.6601 0.9096 12.45 0.9096 12.45 13.6806 0.6601 13.6806"></polygon>
        <polygon id="path-5" points="0.5708 0.838 1.7098 0.838 1.7098 1.4247 0.5708 1.4247"></polygon>
        <polygon id="path-7" points="0.6086 0.838 1.6086 0.838 1.6086 1.4048 0.6086 1.4048"></polygon>
        <polygon id="path-9" points="0.1888 0.838 1.1888 0.838 1.1888 1.4516 0.1888 1.4516"></polygon>
        <polygon id="path-11" points="0.213 0.7382 10.9453785 0.7382 10.9453785 18 0.213 18"></polygon>
        <polygon id="path-13" points="0.574 0.838 3.225 0.838 3.225 3.6209 0.574 3.6209"></polygon>
        <polygon id="path-15" points="0.2249 0.838 2.8759 0.838 2.8759 3.6205 0.2249 3.6205"></polygon>
    </defs>
    <g id="B購彩大廳-0429" stroke="none" stroke-width="1" fill="none" fill-rule="evenodd">
        <g id="畫板" transform="translate(-14.000000, -21.000000)">
            <g id="photo-no" transform="translate(16.000000, 23.000000)">
                <g id="man">
                    <mask id="mask-2" fill="white">
                        <use xlink:href="#path-1"></use>
                    </mask>
                    <use id="遮罩" fill="#AEB8AB" xlink:href="#path-1"></use>
                    <g id="群組" mask="url(#mask-2)">
                        <g transform="translate(6.000000, 12.000000)">
                            <path d="M3.1801,10.1675 C3.1801,7.4455 5.3861,5.2405 8.1071,5.2405 C8.9661,5.2405 9.7741,5.4605 10.4771,5.8475 C10.8981,5.4635 11.3361,5.1015 11.7901,4.7605 C10.6051,3.1325 8.6851,2.0715 6.5171,2.0715 C2.9181,2.0715 0.0001,4.9895 0.0001,8.5895 C0.0001,11.5525 1.9771,14.0515 4.6841,14.8435 C4.7901,14.5585 4.9001,14.2765 5.0131,14.0005 C3.8951,13.0975 3.1801,11.7165 3.1801,10.1675" id="Fill-1" fill="#FDBA12"></path>
                            <path d="M3.1801,10.1675 C3.1801,11.7165 3.8951,13.0975 5.0131,14.0005 C6.3641,10.6825 8.1791,7.9415 10.4771,5.8475 C9.7741,5.4605 8.9661,5.2405 8.1071,5.2405 C5.3861,5.2405 3.1801,7.4455 3.1801,10.1675" id="Fill-3" fill="#FF6D00"></path>
                            <g id="群組" stroke-width="1" fill="none" transform="translate(36.000000, 1.161800)">
                                <mask id="mask-4" fill="white">
                                    <use xlink:href="#path-3"></use>
                                </mask>
                                <g id="Clip-6"></g>
                                <path d="M12.4501,7.4276 C12.4501,3.8276 9.5321,0.9096 5.9331,0.9096 C3.7651,0.9096 1.8461,1.9696 0.6601,3.5986 C1.1151,3.9386 1.5521,4.3006 1.9741,4.6856 C2.6771,4.2986 3.4841,4.0786 4.3431,4.0786 C7.0641,4.0786 9.2701,6.2836 9.2701,9.0056 C9.2701,10.5536 8.5551,11.9336 7.4391,12.8366 C7.5521,13.1146 7.6611,13.3956 7.7681,13.6806 C10.4731,12.8876 12.4501,10.3896 12.4501,7.4276" id="Fill-5" fill="#FFA300" mask="url(#mask-4)"></path>
                            </g>
                            <path d="M43.4388,13.9985 C44.5558,13.0955 45.2698,11.7155 45.2698,10.1675 C45.2698,7.4455 43.0638,5.2405 40.3428,5.2405 C39.4838,5.2405 38.6768,5.4605 37.9738,5.8475 C40.2728,7.9415 42.0878,10.6815 43.4388,13.9985" id="Fill-7" fill="#F24500"></path>
                            <g id="群組" stroke-width="1" fill="none" transform="translate(21.000000, 0.161800)">
                                <mask id="mask-6" fill="white">
                                    <use xlink:href="#path-5"></use>
                                </mask>
                                <g id="Clip-10"></g>
                                <path d="M1.7098,0.8797 C1.3248,0.9007 0.9448,0.9297 0.5708,0.9667 L0.5738,0.9697 C0.9468,0.9327 1.3248,0.9007 1.7098,0.8797" id="Fill-9" fill="#FFA300" mask="url(#mask-6)"></path>
                            </g>
                            <path d="M12.3114,22.9839 C11.1934,22.9839 10.2874,22.0789 10.2874,20.9609 C10.2874,19.8429 11.1934,18.9369 12.3114,18.9369 C13.4294,18.9369 14.3344,19.8429 14.3344,20.9609 C14.3344,22.0789 13.4294,22.9839 12.3114,22.9839 L12.3114,22.9839 Z M2.3734,26.4539 C2.4094,24.6229 2.6624,22.5629 3.1564,20.2379 L11.7934,24.2969 L2.3734,26.4539 Z M5.4444,36.2709 C4.2404,34.9819 3.3364,33.3439 2.8314,31.2359 L11.4924,30.0549 L5.4444,36.2709 Z M14.2504,33.1029 C14.9444,29.9059 16.2694,27.4579 18.2734,25.9199 C18.3234,25.6849 18.4254,25.4629 18.5754,25.2729 L18.5754,12.5159 L16.0574,9.9989 L18.5754,7.4919 L18.5754,3.6139 L17.0244,2.0629 C15.0844,2.6939 13.3414,3.5979 11.7904,4.7599 C11.3354,5.1009 10.8984,5.4629 10.4774,5.8469 C8.1784,7.9419 6.3644,10.6819 5.0134,14.0009 C4.9004,14.2769 4.7904,14.5579 4.6844,14.8429 C4.0984,16.4149 3.6094,18.1059 3.2164,19.9129 C-0.0616,35.0079 6.5704,39.2629 14.9234,40.4579 C13.8584,38.9709 13.4774,36.6699 14.2504,33.1029 L14.2504,33.1029 Z" id="Fill-11" fill="#FFA300"></path>
                            <path d="M45.3705,32.1323 C45.3395,32.2283 45.3085,32.3243 45.2765,32.4193 C45.2295,32.5563 45.1815,32.6913 45.1315,32.8233 C45.1275,32.8323 45.1245,32.8403 45.1215,32.8493 C45.0875,32.9373 45.0535,33.0243 45.0175,33.1103 C45.0055,33.1403 44.9925,33.1693 44.9795,33.1983 C44.9505,33.2683 44.9215,33.3373 44.8915,33.4053 C44.8465,33.5053 44.8015,33.6043 44.7545,33.7003 C44.7395,33.7333 44.7235,33.7653 44.7075,33.7963 C44.6775,33.8583 44.6475,33.9173 44.6165,33.9783 C44.5965,34.0163 44.5765,34.0553 44.5565,34.0933 C44.5145,34.1723 44.4715,34.2493 44.4285,34.3263 C44.3995,34.3783 44.3695,34.4293 44.3395,34.4803 C44.3195,34.5133 44.2995,34.5473 44.2795,34.5803 C44.2475,34.6333 44.2165,34.6853 44.1835,34.7363 C44.1655,34.7653 44.1475,34.7933 44.1295,34.8213 C44.0695,34.9153 44.0085,35.0073 43.9455,35.0993 C43.9265,35.1273 43.9065,35.1563 43.8865,35.1853 C43.8545,35.2313 43.8215,35.2763 43.7895,35.3203 C43.7625,35.3573 43.7355,35.3943 43.7085,35.4303 C43.6785,35.4703 43.6485,35.5093 43.6185,35.5483 C43.5645,35.6193 43.5095,35.6893 43.4535,35.7573 C43.4365,35.7783 43.4195,35.7973 43.4035,35.8183 C43.3535,35.8773 43.3035,35.9373 43.2535,35.9953 C43.2345,36.0163 43.2165,36.0363 43.1985,36.0583 C43.1385,36.1253 43.0785,36.1933 43.0165,36.2583 C43.0125,36.2633 43.0095,36.2673 43.0055,36.2713 L43.0045,36.2713 C40.7775,38.6583 37.5375,39.8193 33.9515,40.3813 C33.9475,40.3863 33.9445,40.3913 33.9405,40.3953 C40.0645,39.4373 45.1745,36.7373 45.9765,29.1683 C45.8655,30.2103 45.6705,31.1573 45.4045,32.0233 C45.3935,32.0593 45.3815,32.0953 45.3705,32.1323" id="Fill-13" fill="#FFA300"></path>
                            <g id="群組" stroke-width="1" fill="none" transform="translate(25.000000, 0.161800)">
                                <mask id="mask-8" fill="white">
                                    <use xlink:href="#path-7"></use>
                                </mask>
                                <g id="Clip-16"></g>
                                <path d="M1.3441,0.9188 C1.1531,0.9038 0.9601,0.8918 0.7671,0.8808 C0.9971,0.8948 1.2251,0.9098 1.4501,0.9288 C1.4151,0.9258 1.3801,0.9218 1.3441,0.9188" id="Fill-15" fill="#FE8205" mask="url(#mask-8)"></path>
                            </g>
                            <path d="M45.2938,20.2378 C45.7878,22.5628 46.0408,24.6228 46.0768,26.4538 L36.6568,24.2978 L45.2938,20.2378 Z M34.1148,20.9608 C34.1148,19.8428 35.0208,18.9368 36.1388,18.9368 C37.2558,18.9368 38.1628,19.8428 38.1628,20.9608 C38.1628,22.0788 37.2558,22.9838 36.1388,22.9838 C35.0208,22.9838 34.1148,22.0788 34.1148,20.9608 L34.1148,20.9608 Z M37.9738,5.8468 C37.5518,5.4628 37.1148,5.0998 36.6608,4.7598 C35.1088,3.5968 33.3658,2.6928 31.4258,2.0628 L29.8998,3.5898 L29.9018,7.5088 L32.3928,9.9988 L29.9038,12.4868 L29.9108,25.2428 C29.9148,25.2488 29.9178,25.2538 29.9208,25.2588 C29.9508,25.2988 29.9798,25.3398 30.0058,25.3818 C30.0088,25.3878 30.0128,25.3938 30.0168,25.3998 C30.0448,25.4468 30.0708,25.4958 30.0938,25.5468 L30.1058,25.5728 C30.1258,25.6178 30.1438,25.6638 30.1588,25.7098 C30.1618,25.7168 30.1648,25.7238 30.1668,25.7308 C30.1838,25.7848 30.1978,25.8388 30.2098,25.8928 C30.2098,25.8948 30.2108,25.8968 30.2108,25.8998 C32.1718,27.4368 33.4818,29.8918 34.3678,33.1028 C35.3348,36.6078 35.0148,38.8918 33.9508,40.3818 C37.5378,39.8188 40.7768,38.6588 43.0048,36.2708 L36.9578,30.0548 L45.6188,31.2358 C45.5538,31.5068 45.4818,31.7678 45.4048,32.0228 C45.6708,31.1578 45.8658,30.2108 45.9768,29.1688 C45.9788,29.1508 45.9808,29.1338 45.9818,29.1158 C46.0018,28.9278 46.0188,28.7388 46.0328,28.5458 C46.0338,28.5378 46.0348,28.5288 46.0348,28.5198 C46.0448,28.3808 46.0538,28.2398 46.0608,28.0968 C46.0618,28.0748 46.0628,28.0528 46.0638,28.0308 C46.0698,27.8968 46.0748,27.7608 46.0788,27.6248 C46.0798,27.5988 46.0808,27.5748 46.0818,27.5498 C46.0858,27.3908 46.0878,27.2308 46.0878,27.0678 C46.0948,25.0028 45.8258,22.6288 45.2338,19.9008 C44.8418,18.0978 44.3538,16.4108 43.7678,14.8418 C43.6618,14.5568 43.5518,14.2758 43.4388,13.9988 C42.0878,10.6808 40.2728,7.9418 37.9738,5.8468 L37.9738,5.8468 Z" id="Fill-17" fill="#FE8205"></path>
                            <g id="群組" stroke-width="1" fill="none" transform="translate(26.000000, 0.161800)">
                                <mask id="mask-10" fill="white">
                                    <use xlink:href="#path-9"></use>
                                </mask>
                                <g id="Clip-20"></g>
                                <path d="M0.8793,0.9666 C0.7533,0.9536 0.6263,0.9436 0.4983,0.9326 C0.6253,0.9436 0.7503,0.9576 0.8763,0.9706 L0.8793,0.9666 Z" id="Fill-19" fill="#FE8205" mask="url(#mask-10)"></path>
                            </g>
                            <path d="M21.8641,30.5376 L18.7081,27.3816 C18.2981,26.9726 18.1681,26.4196 18.2731,25.9196 C16.2701,27.4576 14.9441,29.9056 14.2511,33.1026 C13.4771,36.6696 13.8591,38.9716 14.9231,40.4576 C16.7761,43.0446 20.6981,43.1596 24.2131,43.1616 L24.2131,31.5216 C23.3641,31.5166 22.5141,31.1876 21.8641,30.5376" id="Fill-21" fill="#FFFFFF"></path>
                            <g id="群組" stroke-width="1" fill="none" transform="translate(24.000000, 25.161800)">
                                <mask id="mask-12" fill="white">
                                    <use xlink:href="#path-11"></use>
                                </mask>
                                <g id="Clip-24"></g>
                                <path d="M10.368,7.9412 C9.482,4.7302 8.172,2.2752 6.211,0.7382 C6.212,0.7432 6.213,0.7492 6.214,0.7542 C6.222,0.7962 6.229,0.8392 6.234,0.8822 C6.235,0.8952 6.237,0.9092 6.238,0.9212 C6.243,0.9722 6.245,1.0232 6.245,1.0752 C6.243,1.4712 6.095,1.8742 5.778,2.1952 L2.6,5.3742 L2.598,5.3762 L2.586,5.3872 C2.568,5.4052 2.549,5.4222 2.531,5.4402 C2.51,5.4602 2.489,5.4802 2.468,5.5002 C2.445,5.5212 2.421,5.5412 2.397,5.5612 C2.378,5.5782 2.359,5.5942 2.34,5.6102 C2.313,5.6312 2.286,5.6522 2.26,5.6722 C2.243,5.6862 2.225,5.7002 2.207,5.7132 C2.178,5.7352 2.148,5.7552 2.118,5.7752 C2.103,5.7872 2.087,5.7982 2.071,5.8092 C2.038,5.8312 2.005,5.8512 1.972,5.8722 C1.958,5.8792 1.945,5.8882 1.931,5.8962 C1.892,5.9202 1.853,5.9412 1.814,5.9622 C1.806,5.9662 1.797,5.9722 1.788,5.9762 C1.742,6.0022 1.695,6.0252 1.647,6.0462 C1.646,6.0472 1.645,6.0482 1.643,6.0482 C1.196,6.2582 0.71,6.3632 0.225,6.3632 L0.225,6.3602 L0.213,6.3602 L0.213,18.0002 L0.309,18.0002 C3.857,18.0002 8.055,17.8522 9.941,15.2332 C9.944,15.2292 9.948,15.2242 9.951,15.2192 C11.015,13.7302 11.334,11.4462 10.368,7.9412" id="Fill-23" fill="#E9EDF5" mask="url(#mask-12)"></path>
                            </g>
                            <polygon id="Fill-25" fill="#FDBA12" points="24.225 12.6851 24.225 12.6721 24.225 9.2641 18.575 3.6141 18.575 7.4921 18.804 7.2641"></polygon>
                            <g id="群組" stroke-width="1" fill="none" transform="translate(21.000000, 0.161800)">
                                <mask id="mask-14" fill="white">
                                    <use xlink:href="#path-13"></use>
                                </mask>
                                <g id="Clip-28"></g>
                                <path d="M3.225,3.6209 L3.225,0.8379 C2.995,0.8379 2.768,0.8419 2.542,0.8479 C2.487,0.8489 2.433,0.8499 2.378,0.8519 C2.176,0.8579 1.975,0.8659 1.777,0.8769 C1.754,0.8779 1.732,0.8789 1.71,0.8799 C1.325,0.9009 0.947,0.9329 0.574,0.9699 L3.225,3.6209 Z" id="Fill-27" fill="#FDBA12" mask="url(#mask-14)"></path>
                            </g>
                            <path d="M19.3099,24.7554 C20.7779,24.2704 22.4199,24.0194 24.2249,24.0104 L24.2249,24.0084 L24.2249,18.1654 L18.5749,12.5164 L18.5749,25.2734 C18.7549,25.0434 18.9999,24.8594 19.3099,24.7554" id="Fill-29" fill="#FDBA12"></path>
                            <polygon id="Fill-31" fill="#FDBA12" points="29.8988 7.5054 29.9018 7.5084 29.8998 3.5894 29.8988 3.5904"></polygon>
                            <path d="M29.8988,25.227 C29.9028,25.233 29.9068,25.238 29.9108,25.243 L29.9038,12.487 L29.8988,12.492 L29.8988,25.227 Z" id="Fill-33" fill="#FDBA12"></path>
                            <path d="M24.3212,24.0083 L24.3212,24.0083 C25.4432,24.0083 26.4852,24.0983 27.4582,24.2793 C27.7512,24.3333 28.0362,24.3973 28.3172,24.4683 C28.5962,24.5393 28.8712,24.6183 29.1402,24.7063 C29.1822,24.7203 29.2232,24.7363 29.2622,24.7513 C29.2762,24.7573 29.2882,24.7633 29.3012,24.7693 C29.3282,24.7803 29.3542,24.7923 29.3792,24.8053 C29.3942,24.8133 29.4082,24.8203 29.4232,24.8283 C29.4452,24.8413 29.4672,24.8533 29.4882,24.8663 C29.5032,24.8753 29.5182,24.8843 29.5322,24.8943 C29.5522,24.9073 29.5722,24.9213 29.5922,24.9353 C29.6062,24.9453 29.6192,24.9553 29.6332,24.9663 C29.6522,24.9813 29.6702,24.9953 29.6882,25.0113 C29.7012,25.0223 29.7142,25.0323 29.7262,25.0443 C29.7442,25.0603 29.7612,25.0773 29.7792,25.0943 C29.7902,25.1063 29.8012,25.1163 29.8122,25.1273 C29.8302,25.1473 29.8472,25.1663 29.8642,25.1873 C29.8732,25.1963 29.8822,25.2063 29.8892,25.2173 C29.8922,25.2203 29.8962,25.2243 29.8992,25.2273 L29.8992,12.4913 L24.2252,18.1653 L24.2252,24.0083 L24.3212,24.0083 Z" id="Fill-35" fill="#FFA300"></path>
                            <polygon id="Fill-37" fill="#FFA300" points="29.6459 7.2524 29.8989 7.5054 29.8989 3.5904 24.2249 9.2644 24.2249 12.6724"></polygon>
                            <g id="群組" stroke-width="1" fill="none" transform="translate(24.000000, 0.161800)">
                                <mask id="mask-16" fill="white">
                                    <use xlink:href="#path-15"></use>
                                </mask>
                                <g id="Clip-40"></g>
                                <path d="M2.8759,0.9705 C2.7499,0.9575 2.6259,0.9435 2.4989,0.9325 C2.4819,0.9315 2.4669,0.9295 2.4509,0.9285 C2.2249,0.9095 1.9969,0.8945 1.7669,0.8805 L1.6469,0.8745 C1.4639,0.8665 1.2799,0.8585 1.0939,0.8525 C1.0309,0.8505 0.9679,0.8485 0.9039,0.8475 C0.6799,0.8415 0.4539,0.8375 0.2249,0.8375 L0.2249,3.6205 L2.8759,0.9705 Z" id="Fill-39" fill="#FFA300" mask="url(#mask-16)"></path>
                            </g>
                            <path d="M24.225,24.0102 C22.42,24.0192 20.778,24.2702 19.31,24.7552 C19,24.8592 18.755,25.0432 18.575,25.2732 C18.426,25.4632 18.323,25.6852 18.273,25.9192 C18.168,26.4192 18.298,26.9722 18.708,27.3812 L21.864,30.5372 C22.515,31.1882 23.364,31.5162 24.213,31.5222 L24.225,31.5222 L24.225,25.6702 L24.225,24.0102 Z" id="Fill-41" fill="#333940"></path>
                            <path d="M26.598,30.5376 L26.6,30.5356 L26.598,30.5376 Z" id="Fill-43" fill="#333940"></path>
                            <path d="M30.2113,25.8999 C30.2113,25.8969 30.2103,25.8949 30.2093,25.8929 C30.2113,25.9009 30.2123,25.9089 30.2133,25.9169 C30.2123,25.9109 30.2123,25.9049 30.2113,25.8999" id="Fill-45" fill="#333940"></path>
                            <path d="M29.8895,25.2173 C29.9005,25.2303 29.9105,25.2443 29.9215,25.2583 C29.9175,25.2533 29.9145,25.2483 29.9105,25.2423 C29.9065,25.2383 29.9025,25.2333 29.8985,25.2273 C29.8955,25.2243 29.8925,25.2203 29.8895,25.2173" id="Fill-47" fill="#333940"></path>
                            <path d="M28.3168,24.4683 C28.5968,24.5393 28.8708,24.6183 29.1398,24.7063 C29.1818,24.7203 29.2228,24.7363 29.2628,24.7513 C29.2228,24.7363 29.1818,24.7203 29.1398,24.7063 C28.8708,24.6183 28.5968,24.5393 28.3168,24.4683" id="Fill-49" fill="#333940"></path>
                            <path d="M29.8641,25.187 C29.8471,25.166 29.8301,25.147 29.8121,25.127 C29.8011,25.117 29.7901,25.106 29.7791,25.094 C29.7611,25.078 29.7441,25.06 29.7261,25.044 C29.7141,25.033 29.7011,25.022 29.6881,25.011 C29.6701,24.996 29.6521,24.981 29.6331,24.966 C29.6191,24.956 29.6061,24.945 29.5921,24.935 C29.5721,24.921 29.5521,24.908 29.5321,24.894 C29.5181,24.884 29.5031,24.875 29.4891,24.867 C29.4671,24.853 29.4451,24.841 29.4231,24.829 C29.4081,24.821 29.3941,24.813 29.3791,24.805 C29.3541,24.792 29.3281,24.781 29.3021,24.769 C29.2881,24.763 29.2761,24.757 29.2621,24.751 C29.2231,24.736 29.1821,24.72 29.1401,24.707 C28.8711,24.619 28.5961,24.54 28.3171,24.468 C28.0361,24.397 27.7511,24.333 27.4581,24.28 C26.4851,24.098 25.4431,24.008 24.3211,24.008 L24.2251,24.008 L24.2251,24.01 L24.2251,25.67 L24.2251,31.522 L24.2251,31.525 C24.7101,31.525 25.1961,31.42 25.6431,31.21 C25.6451,31.21 25.6461,31.209 25.6471,31.208 C25.6951,31.187 25.7421,31.164 25.7881,31.138 C25.7971,31.134 25.8061,31.128 25.8141,31.124 C25.8531,31.103 25.8921,31.082 25.9311,31.058 C25.9451,31.05 25.9581,31.041 25.9711,31.034 C26.0051,31.013 26.0381,30.993 26.0711,30.971 C26.0871,30.96 26.1031,30.949 26.1181,30.937 C26.1481,30.917 26.1781,30.897 26.2071,30.875 C26.2251,30.862 26.2421,30.848 26.2601,30.834 C26.2861,30.814 26.3131,30.793 26.3401,30.772 C26.3591,30.756 26.3781,30.74 26.3971,30.723 C26.4211,30.703 26.4451,30.683 26.4681,30.662 C26.4891,30.642 26.5101,30.622 26.5311,30.602 C26.5491,30.584 26.5681,30.567 26.5861,30.549 L26.5981,30.538 L26.6001,30.536 L29.7781,27.357 C30.0951,27.036 30.2431,26.633 30.2451,26.237 C30.2451,26.185 30.2421,26.134 30.2381,26.083 C30.2371,26.071 30.2351,26.057 30.2341,26.044 C30.2291,26.001 30.2221,25.958 30.2141,25.916 C30.2121,25.909 30.2111,25.901 30.2091,25.893 C30.1981,25.838 30.1841,25.785 30.1671,25.731 C30.1641,25.724 30.1611,25.717 30.1591,25.709 C30.1431,25.664 30.1251,25.618 30.1061,25.573 L30.0941,25.546 C30.0711,25.496 30.0451,25.447 30.0171,25.4 C30.0131,25.394 30.0091,25.388 30.0061,25.381 C29.9791,25.339 29.9511,25.298 29.9211,25.258 C29.9101,25.245 29.9011,25.23 29.8891,25.217 C29.8821,25.207 29.8731,25.197 29.8641,25.187" id="Fill-51" fill="#23272B"></path>
                            <path d="M12.3114,18.937 C11.1934,18.937 10.2874,19.843 10.2874,20.96 C10.2874,22.079 11.1934,22.984 12.3114,22.984 C13.4294,22.984 14.3344,22.079 14.3344,20.96 C14.3344,19.843 13.4294,18.937 12.3114,18.937" id="Fill-53" fill="#333940"></path>
                            <path d="M38.1625,20.9604 C38.1625,19.8434 37.2565,18.9374 36.1385,18.9374 C35.0205,18.9374 34.1155,19.8434 34.1155,20.9604 C34.1155,22.0784 35.0205,22.9834 36.1385,22.9834 C37.2565,22.9834 38.1625,22.0784 38.1625,20.9604" id="Fill-55" fill="#23272B"></path>
                            <path d="M2.3729,26.4536 L11.7929,24.2976 L3.1559,20.2376 C2.6619,22.5626 2.4089,24.6226 2.3729,26.4536" id="Fill-57" fill="#FF6D00"></path>
                            <path d="M5.4447,36.271 L11.4917,30.055 L2.8307,31.236 C3.3367,33.344 4.2397,34.982 5.4447,36.271" id="Fill-59" fill="#FF6D00"></path>
                            <path d="M46.077,26.4536 C46.041,24.6226 45.788,22.5626 45.294,20.2376 L36.657,24.2976 L46.077,26.4536 Z" id="Fill-61" fill="#F24500"></path>
                            <path d="M43.0165,36.2583 C43.0785,36.1933 43.1385,36.1253 43.1985,36.0583 C43.2165,36.0363 43.2345,36.0163 43.2535,35.9953 C43.3035,35.9373 43.3535,35.8773 43.4035,35.8183 C43.4195,35.7973 43.4365,35.7783 43.4535,35.7573 C43.5095,35.6893 43.5645,35.6193 43.6185,35.5483 C43.6485,35.5093 43.6785,35.4703 43.7085,35.4303 C43.7355,35.3943 43.7625,35.3573 43.7895,35.3213 C43.8215,35.2763 43.8545,35.2313 43.8865,35.1853 C43.9065,35.1563 43.9265,35.1273 43.9455,35.0993 C44.0085,35.0073 44.0695,34.9153 44.1295,34.8213 C44.1475,34.7933 44.1655,34.7653 44.1835,34.7373 C44.2165,34.6853 44.2475,34.6333 44.2795,34.5803 C44.2995,34.5473 44.3195,34.5133 44.3395,34.4803 C44.3695,34.4293 44.3995,34.3783 44.4285,34.3263 C44.4715,34.2493 44.5145,34.1723 44.5565,34.0933 C44.5765,34.0553 44.5965,34.0163 44.6165,33.9783 C44.6475,33.9173 44.6775,33.8583 44.7075,33.7963 C44.7235,33.7653 44.7395,33.7333 44.7545,33.7003 C44.8015,33.6043 44.8465,33.5053 44.8915,33.4053 C44.9215,33.3373 44.9505,33.2683 44.9795,33.1983 C44.9925,33.1693 45.0055,33.1403 45.0175,33.1103 C45.0535,33.0243 45.0875,32.9373 45.1215,32.8493 C45.1245,32.8403 45.1275,32.8323 45.1315,32.8233 C45.1815,32.6913 45.2295,32.5563 45.2765,32.4193 C45.3085,32.3243 45.3395,32.2283 45.3705,32.1323 C45.3815,32.0953 45.3935,32.0593 45.4045,32.0233 C45.4825,31.7683 45.5545,31.5063 45.6195,31.2363 L36.9575,30.0553 L43.0045,36.2713 L43.0055,36.2713 C43.0095,36.2673 43.0125,36.2633 43.0165,36.2583" id="Fill-63" fill="#F24500"></path>
                            <polygon id="Fill-65" fill="#FF6D00" points="24.225 12.6851 18.804 7.2641 18.575 7.4921 16.058 9.9981 18.575 12.5161 24.225 18.1651 29.899 12.4921 29.904 12.4871 32.392 9.9981 24.225 18.1541"></polygon>
                            <polygon id="Fill-67" fill="#F24500" points="29.6459 7.2524 24.2249 12.6724 24.2249 12.6854 24.2249 18.1534 32.3929 9.9984 29.9019 7.5084 29.8989 7.5054"></polygon>
                            <path d="M24.225,3.7827 L26.887,1.1327 C28.501,1.2897 30.019,1.6017 31.429,2.0597 C30.019,1.6017 28.501,1.2897 26.887,1.1207 L26.879,1.1287 L26.876,1.1327 L24.225,3.7827 Z" id="Fill-69" fill="#FF6D00"></path>
                            <path d="M24.225,9.2642 L24.225,3.7832 L21.574,1.1312 L21.571,1.1282 L21.563,1.1202 C19.949,1.2892 18.431,1.6022 17.021,2.0602 L17.024,2.0632 L18.575,3.6142 L24.225,9.2642 Z" id="Fill-71" fill="#FF6D00"></path>
                            <path d="M24.225,3.7827 L24.225,9.2637 L29.899,3.5907 L29.9,3.5897 L31.426,2.0627 L31.429,2.0597 C30.019,1.6017 28.501,1.2897 26.887,1.1327 L24.225,3.7827 Z" id="Fill-73" fill="#F24500"></path>
                        </g>
                    </g>
                </g>
                <circle id="橢圓形" stroke="#DFD7DE" stroke-width="3" cx="30" cy="30" r="30"></circle>
            </g>
        </g>
    </g>
</svg>