<?xml version="1.0" encoding="UTF-8"?>
<svg width="64px" height="64px" viewBox="0 0 64 64" version="1.1" xmlns="http://www.w3.org/2000/svg" xmlns:xlink="http://www.w3.org/1999/xlink">
    <!-- Generator: sketchtool 55 (78076) - https://sketchapp.com -->
    <title>6B31C0B2-56B0-48D6-8415-CBD46FDF3846</title>
    <desc>Created with sketchtool.</desc>
    <defs>
        <circle id="path-1" cx="30" cy="30" r="30"></circle>
        <polygon id="path-3" points="0.273690863 0.1205 30.89915 0.1205 30.89915 22.9040919 0.273690863 22.9040919"></polygon>
        <polygon id="path-5" points="0.0825272727 0.16685 16.9165455 0.16685 16.9165455 15.91685 0.0825272727 15.91685"></polygon>
    </defs>
    <g id="B購彩大廳-0429" stroke="none" stroke-width="1" fill="none" fill-rule="evenodd">
        <g id="畫板" transform="translate(-15.000000, -383.000000)">
            <g id="photo-admin" transform="translate(17.000000, 385.000000)">
                <g id="man">
                    <mask id="mask-2" fill="white">
                        <use xlink:href="#path-1"></use>
                    </mask>
                    <use id="遮罩" fill="#D98C8C" xlink:href="#path-1"></use>
                    <g id="Group-87" mask="url(#mask-2)">
                        <g transform="translate(11.000000, 6.000000)">
                            <path d="M24.0777041,33 L19.0025315,34.1475767 L13.9268527,33 C13.9268527,33 18.6253364,41.9823914 4.07066912,46.9610934 C2.65403576,47.4460842 1.72497135,48.5237297 1.72497135,49.7261446 L0,60 L15.2002025,60 L22.8003038,60 L38,60 L36.2800917,49.7261446 C36.2800917,48.5237297 35.3515336,47.4460842 33.9338876,46.9610934 C19.3792203,41.9823914 24.0777041,33 24.0777041,33" id="Fill-1" fill="#F2B883"></path>
                            <path d="M33.9338334,46.5127193 C30.9982546,45.4739952 28.8560617,44.2656197 27.2905547,43 L27.0444886,43.0811828 C21.7297643,44.8323384 16.0120182,44.8037163 10.7145084,43 C9.14849506,44.2656197 7.00630221,45.4739952 4.07072336,46.5127193 C2.65356481,47.0143876 1.72448803,48.1290905 1.72448803,49.3728533 L0,60 L15.1998987,60 L22.8001013,60 L38,60 L36.2800688,49.3728533 C36.2800688,48.1290905 35.3514983,47.0143876 33.9338334,46.5127193" id="Fill-3" fill="#BFD0DB"></path>
                            <path d="M33.9343284,46.5129744 C30.9985418,45.4738381 28.856143,44.2653956 27.2905244,43 L27.0441964,43.0812877 C21.7297577,44.8323384 16.0118246,44.8038619 10.7140092,43 C9.14889443,44.2653956 7.00649557,45.4738381 4.07070895,46.5129744 C2.65318946,47.0141621 1.72479983,48.1294085 1.72479983,49.3730584 L0,60 L15.2003022,60 L22.7996978,60 L38,60 L36.2802376,49.3730584 C36.2802376,48.1294085 35.3513442,47.0141621 33.9343284,46.5129744" id="Fill-5" fill="#E8E9EA"></path>
                            <polygon id="Fill-7" fill="#E8E9EA" points="19 47.1028373 19.885304 44 21 48"></polygon>
                            <polygon id="Fill-9" fill="#E8E9EA" points="19 47.1028373 18.114696 44 17 48"></polygon>
                            <path d="M23.8835731,32 L18.9448867,33.1931169 L14.0057076,32 C14.0057076,32 15.4827808,35.0264683 14.1476012,38.5875116 C12.601552,42.6355307 23.6869913,42.6355307 24.7339495,40.8921469 C24.78174,40.8126406 24.9108238,40.8879623 25,40.8869162 C21.7137831,36.435089 23.8835731,32 23.8835731,32" id="Fill-11" fill="#D39C6E"></path>
                            <path d="M29.1493102,32.8369781 C27.8441644,35.6527396 21.8055606,39 18.5029111,39 C15.1997764,39 9.16214297,35.6527396 7.85651202,32.8369781 C5.92935998,28.6791571 7.85651202,14.4539165 7.85651202,14.4539165 C9.50953493,12.8219483 13.0484692,8 18.5029111,8 C21.9972084,8 27.4705725,12.8761829 29.1493102,14.5791491 C29.1493102,14.5791491 31.0633623,28.7077535 29.1493102,32.8369781" id="Fill-13" fill="#F2B883"></path>
                            <path d="M32.9284091,32.7458227 C32.1045991,30.7974415 32.794404,20.4305922 32.794404,20.4305922 L30.6211476,20 L30.6211476,28.44331 L28.2308128,30.472549 L28.0468648,30.4345555 C22.3607953,29.2552978 16.4863275,29.2660139 10.8047084,30.4652425 L10.7691056,30.472549 L8.37926523,28.44331 L8.37926523,20 L6.20551434,20.4305922 C6.20551434,20.4305922 6.89581376,30.7974415 6.07150923,32.7458227 C5.24769918,34.694204 11.6759889,40.4580027 18.4336048,39.9709074 L19.4843829,39.9709074 L19.4843829,39.928043 L19.5155354,39.9709074 L20.5663136,39.9709074 C27.324424,40.4580027 33.7527137,34.694204 32.9284091,32.7458227" id="Fill-15" fill="#575757"></path>
                            <g id="Group-19" stroke-width="1" fill="none" transform="translate(4.000000, 0.000000)">
                                <mask id="mask-4" fill="white">
                                    <use xlink:href="#path-3"></use>
                                </mask>
                                <g id="Clip-18"></g>
                                <path d="M7.94115,11.4166 C8.84315,12.8091 18.35765,16.5831 24.77415,13.3331 C24.50165,13.5236 27.11115,21.3306 27.40915,22.0131 C27.52765,22.2846 27.66815,22.5586 27.90165,22.7431 C29.85115,24.2791 30.70965,14.3436 30.69115,13.3331 C30.64065,10.6431 30.89915,7.0831 30.89915,7.0831 C30.89915,7.0831 16.28115,-0.7919 11.14915,0.2081 C8.82365,0.6616 4.02415,6.4581 4.02415,6.4581 C0.14915,7.5831 0.27415,9.0831 0.27415,9.0831 C0.27415,9.0831 1.70615,17.6326 2.19115,20.3331 C2.43765,21.7081 1.47515,21.9646 3.74315,21.3141 C5.64265,20.7686 7.52765,13.0901 7.94115,11.4166" id="Fill-17" fill="#575757" mask="url(#mask-4)"></path>
                            </g>
                            <path d="M6.50262895,30.9119352 L5.34177148,30.998435 C5.04483247,31.0207074 4.78639533,30.802645 4.76371615,30.5110319 L4.00159028,20.6557522 C3.9789111,20.3641391 4.2014835,20.1103372 4.49789508,20.0880648 L5.65822513,20.001565 C5.95516413,19.9792926 6.2141287,20.197355 6.23628046,20.4889681 L6.99840633,30.3442478 C7.02108551,30.6358609 6.79904053,30.8901807 6.50262895,30.9119352" id="Fill-20" fill="#1D262D"></path>
                            <path d="M30.4977523,30.9119352 L31.6584329,30.998435 C31.9553267,31.0207074 32.2137245,30.802645 32.2364002,30.5110319 L32.99841,20.6557522 C33.0210857,20.3641391 32.7985472,20.1103372 32.5021808,20.0880648 L31.3420275,20.001565 C31.0451337,19.9792926 30.7862086,20.197355 30.7635329,20.4889681 L30.0015231,30.3442478 C29.9793747,30.6358609 30.2013859,30.8901807 30.4977523,30.9119352" id="Fill-22" fill="#1D262D"></path>
                            <path d="M26.0064583,33 C25.568929,33 25.2869547,32.9845274 25.2306586,32.9808868 C25.0943628,32.9726954 24.9916471,32.8643873 25.000536,32.7392413 C25.0094249,32.6140953 25.1284368,32.5189843 25.2627573,32.5267206 C25.3373249,32.5326366 32.6474219,32.9244573 34.5284027,29.1323062 C34.5851926,29.0180821 34.7323526,28.9689338 34.8558089,29.0203575 C34.9797591,29.0726912 35.0340799,29.2073938 34.9777838,29.321618 C33.3160614,32.6714349 28.0197843,33 26.0064583,33" id="Fill-24" fill="#A5B7C6"></path>
                            <path d="M25.4807692,34 L23.5192308,34 C23.2326154,34 23,33.776 23,33.5 C23,33.224 23.2326154,33 23.5192308,33 L25.4807692,33 C25.7673846,33 26,33.224 26,33.5 C26,33.776 25.7673846,34 25.4807692,34" id="Fill-26" fill="#1D262D"></path>
                            <path d="M34,28 L33.0191571,28 L33.0191571,20.8390501 C33.0191571,12.6406121 26.2817471,5.97097625 18,5.97097625 C9.71825287,5.97097625 2.98084291,12.6406121 2.98084291,20.8390501 L2.98084291,28 L2,28 L2,20.8390501 C2,12.1056042 9.17780843,5 18,5 C26.8221916,5 34,12.1056042 34,20.8390501 L34,28 Z" id="Fill-28" fill="#1D262D"></path>
                            <path d="M4,29.8851209 L2.60588271,29.9967859 C2.03114091,30.042796 1.53008396,29.5894155 1.48636428,28.9845635 L1.00299169,22.2903509 C0.959763246,21.6854989 1.39008275,21.1576751 1.96482455,21.111665 L3.35845061,21 L4,29.8851209 Z" id="Fill-30" fill="#A5B7C6"></path>
                            <path d="M34,29.8851209 L35.3938905,29.9967859 C35.9690299,30.042796 36.4700053,29.5894155 36.5137179,28.9845635 L36.9970118,22.2903509 C37.0402332,21.6854989 36.6094926,21.1576751 36.0353355,21.111665 L34.641445,21 L34,29.8851209 Z" id="Fill-32" fill="#A5B7C6"></path>
                            <path d="M10,22.1315919 C10,22.1315919 10.4897784,24.3679311 12.447653,23.947323 C12.447653,23.947323 13.0307618,23.924487 13.646495,23.3748287 C14.1432938,22.9313846 14.1098435,21.959525 13.5878537,21.5681258 C12.7734836,20.9579254 11.4346459,20.4762441 10,22.1315919" id="Fill-34" fill="#F9FBFC"></path>
                            <path d="M13.9918693,23.2167052 C14.0773649,24.1047823 13.4788955,24.899094 12.6544377,24.9912428 C11.8309798,25.0833915 11.0935175,24.4378112 11.0080219,23.5497341 C10.9565246,23.0108524 11.1565143,22.506459 11.5059964,22.1723524 C11.7324849,21.9562608 13.2504072,21.9072225 13.5583915,22.2375571 C13.7948794,22.4913704 13.9548712,22.8308659 13.9918693,23.2167052" id="Fill-36" fill="#754E23"></path>
                            <path d="M13.9978944,23.4190648 C14.033379,23.6914243 13.6161482,23.9485281 13.0649915,23.9933978 C12.5138347,24.0378189 12.0376536,23.8534042 12.0021689,23.5810447 C11.966112,23.3086851 12.3839151,23.0515814 12.9350719,23.0067116 C13.4856563,22.9618418 13.9624097,23.1467053 13.9978944,23.4190648" id="Fill-38" fill="#8C5D2F"></path>
                            <path d="M12.9972703,22.4483978 C13.0258753,22.7228364 12.8264131,22.9686714 12.5515727,22.9972749 C12.2771188,23.0258783 12.03127,22.8260407 12.0026649,22.5516022 C11.9744464,22.2767771 12.1735221,22.030942 12.4483625,22.0027251 C12.723203,21.9741217 12.9690518,22.1739593 12.9972703,22.4483978" id="Fill-40" fill="#1D262D"></path>
                            <path d="M11.9972916,22.4488232 C12.0257708,22.7233608 11.826416,22.9686923 11.5518468,22.9971683 C11.2772775,23.0263744 11.0311875,22.8263124 11.0027082,22.5517748 C10.974229,22.2772372 11.1735838,22.0311755 11.4488833,22.0026996 C11.7234526,21.9742236 11.9688123,22.1742856 11.9972916,22.4488232" id="Fill-42" fill="#F9FBFC"></path>
                            <path d="M10.1604448,19.7842911 C9.78826328,20.0653994 10.1190338,20.6029734 10.5869784,20.4738278 C11.8117093,20.1361328 13.5882421,19.996035 15.5154075,20.9867592 C15.7700853,21.1177301 16.3472514,20.2456555 15.7121099,19.7578231 C15.0836976,19.2754668 13.7688977,18.8766216 12.026529,19.0354295 C11.2712955,19.1043376 10.6470243,19.41739 10.1604448,19.7842911" id="Fill-44" fill="#575757"></path>
                            <path d="M27,22.1315919 C27,22.1315919 26.5098267,24.3679311 24.5524373,23.947323 C24.5524373,23.947323 23.96935,23.924487 23.3536396,23.3748287 C22.8568591,22.9313846 22.8898952,21.959525 23.4122787,21.5681258 C24.2266187,20.9579254 25.565407,20.4762441 27,22.1315919" id="Fill-46" fill="#F9FBFC"></path>
                            <path d="M24.00804,23.2167052 C23.923056,24.1047823 24.5214436,24.899094 25.3457888,24.9912428 C26.1691342,25.0833915 26.9064958,24.4378112 26.9919797,23.5497341 C27.0434701,23.0108524 26.8435076,22.506459 26.4935733,22.1723524 C26.2676158,21.9562608 24.7499007,21.9072225 24.4414586,22.2375571 C24.2055029,22.4913704 24.0450331,22.8308659 24.00804,23.2167052" id="Fill-48" fill="#754E23"></path>
                            <path d="M24.0021689,23.4190648 C23.966113,23.6914243 24.3839029,23.9485281 24.9350423,23.9933978 C25.4861816,24.0378189 25.9617753,23.8534042 25.9978311,23.5810447 C26.033887,23.3086851 25.6160971,23.0515814 25.0649577,23.0067116 C24.5143908,22.9618418 24.0376524,23.1467053 24.0021689,23.4190648" id="Fill-50" fill="#8C5D2F"></path>
                            <path d="M25.0026596,22.4483978 C24.9744499,22.7228364 25.1738498,22.9686714 25.4486043,22.9972749 C25.7229723,23.0258783 25.9687442,22.8260407 25.9973403,22.5516022 C26.02555,22.2767771 25.8261501,22.030942 25.5517821,22.0027251 C25.2770276,21.9741217 25.0312557,22.1739593 25.0026596,22.4483978" id="Fill-52" fill="#1D262D"></path>
                            <path d="M24.0027082,22.4488232 C23.974229,22.7233608 24.1735838,22.9686923 24.4488833,22.9971683 C24.7234526,23.0263744 24.9695426,22.8263124 24.9972916,22.5517748 C25.0257708,22.2772372 24.826416,22.0311755 24.5518468,22.0026996 C24.2772775,21.9742236 24.0311875,22.1742856 24.0027082,22.4488232" id="Fill-54" fill="#F9FBFC"></path>
                            <path d="M27.8392093,19.7842911 C28.2119195,20.0653994 27.8811392,20.6029734 27.4131809,20.4738278 C26.1878963,20.1361328 24.4118288,19.996035 22.4846067,20.9867592 C22.2299215,21.1177301 21.6527384,20.2456555 22.2878986,19.7578231 C22.9163293,19.2754668 24.2311679,18.8766216 25.9735879,19.0354295 C26.728326,19.1043376 27.3531331,19.41739 27.8392093,19.7842911" id="Fill-56" fill="#575757"></path>
                            <polygon id="Fill-58" fill="#F77046" points="17 45 21 45 20.4321379 48 17.5674389 48"></polygon>
                            <polygon id="Fill-60" fill="#F77046" points="17 60 21 60 20.4321379 48 17.5674389 48"></polygon>
                            <polygon id="Fill-62" fill="#D85A3D" points="19.1719222 48.4368045 20 49 19.924406 48 17 48"></polygon>
                            <polygon id="Fill-64" fill="#FFFFFF" points="12.3384615 40 18 42.9830508 16.5230769 48 10 43.3898305"></polygon>
                            <polygon id="Fill-66" fill="#FFFFFF" points="25.6615385 40 20 42.9830508 21.4769231 48 28 43.3898305"></polygon>
                            <path d="M15,31.1214531 C15,31.1214531 17.2831889,31.2025838 19.6975533,31.1214531 C21.9501873,31.0461522 24,31 24,31 C24,31 23.4289394,33.6316459 20.3997893,33.9551969 C16.6199368,34.3598787 15,31.9108983 15,31.1214531" id="Fill-68" fill="#7F2011"></path>
                            <path d="M22,32 C21.2489129,32.013607 19.7841613,32.0418952 18.2192647,32.0805677 C16.4698906,32.1235372 14.7943076,32.104201 14,32.0902359 C14.1259718,32.4082099 14.368428,32.7745246 14.8370009,32.8862452 C15.7156411,33.0950052 21.0744499,33.0054855 21.6015285,32.7072058 C21.7986559,32.5951271 21.9230465,32.3111705 22,32" id="Fill-70" fill="#F9FBFC"></path>
                            <path d="M10,21.83526 C10.3944348,21.5665684 10.8827826,21.3690963 11.4024348,21.2244992 C11.9226087,21.0791827 12.4892174,21.0032872 13.0615652,21.0000499 C13.3485217,20.9986112 13.6333913,21.0284658 13.9156522,21.0637158 C14.1885217,21.1241445 14.4728696,21.1644302 14.7196522,21.2669431 C15.2408696,21.4295249 15.6608696,21.7061298 16,22 C15.5132174,21.8161962 15.0650435,21.6262777 14.5641739,21.5266423 C14.0758261,21.4154968 13.5713043,21.3511115 13.0594783,21.3597442 C12.0353043,21.3557876 11.0163478,21.5554179 10,21.83526" id="Fill-72" fill="#754E23"></path>
                            <path d="M28,21.83526 C26.9836522,21.5554179 25.9652174,21.3557876 24.9405217,21.3597442 C24.4292174,21.3511115 23.9241739,21.4154968 23.4358261,21.5266423 C22.9354783,21.6262777 22.4873043,21.8161962 22,22 C22.3391304,21.7061298 22.7591304,21.4295249 23.2803478,21.2669431 C23.5276522,21.1644302 23.812,21.1241445 24.0848696,21.0637158 C24.3671304,21.0284658 24.6514783,20.9986112 24.9389565,21.0000499 C25.5107826,21.0032872 26.0773913,21.0791827 26.598087,21.2244992 C27.1172174,21.3690963 27.6055652,21.5665684 28,21.83526" id="Fill-74" fill="#754E23"></path>
                            <path d="M17,28.1176471 L21,28 C21,28 19.72,29 19.0266667,29 C18.3333333,29 17,28.1176471 17,28.1176471" id="Fill-76" fill="#D6A176"></path>
                            <path d="M10.2061389,44 C8.96587814,44.6679365 5.95522845,46.1170794 4.22645898,46.6981587 C2.75521009,47.1928889 1.79015822,48.2925714 1.79015822,49.5192381 L0,60 L15.7815895,60 L17,60 L10.2061389,44 Z" id="Fill-78" fill="#1D262D"></path>
                            <polygon id="Fill-80" fill="#575757" points="10.6509524 42 7 45.5665542 9.38095238 51.8709838 11.9209524 51.207543 9.85714286 53.1152464 14.7928571 60 17 60"></polygon>
                            <g id="Group-84" stroke-width="1" fill="none" transform="translate(21.000000, 44.000000)">
                                <mask id="mask-6" fill="white">
                                    <use xlink:href="#path-5"></use>
                                </mask>
                                <g id="Clip-83"></g>
                                <path d="M6.80989091,0.16685 C8.03801212,0.82435 11.0197091,2.25085 12.7315576,2.82285 C14.1884061,3.30985 15.143497,4.39235 15.143497,5.59985 L16.9166485,15.91685 L1.28901212,15.91685 L0.0825272727,15.91685 L6.80989091,0.16685 Z" id="Fill-82" fill="#1D262D" mask="url(#mask-6)"></path>
                            </g>
                            <polygon id="Fill-85" fill="#575757" points="26.3490476 42 30 45.5665542 27.6190476 51.8709838 25.0795238 51.207543 27.1428571 53.1152464 22.2071429 60 20 60"></polygon>
                        </g>
                    </g>
                </g>
                <circle id="橢圓形" stroke="#EEBEBE" stroke-width="3" cx="30" cy="30" r="30"></circle>
            </g>
        </g>
    </g>
</svg>